<svg version="1.1" xmlns="http://www.w3.org/2000/svg" xmlns:xlink="http://www.w3.org/1999/xlink" width="201.58889" height="141.95741" viewBox="0,0,201.58889,141.95741"><g transform="translate(-139.20556,-109.0213)"><g data-paper-data="{&quot;isPaintingLayer&quot;:true}" fill="#ffffff" fill-rule="nonzero" stroke="none" stroke-width="0" stroke-linecap="butt" stroke-linejoin="miter" stroke-miterlimit="10" stroke-dasharray="" stroke-dashoffset="0" style="mix-blend-mode: normal"><path d="M208.24107,179.7735c-10.63868,-10.63868 -14.28461,-25.62209 -10.93779,-39.23869c1.74498,-7.09953 5.39092,-13.82749 10.93779,-19.37436c6.02737,-6.02737 13.4493,-9.81018 21.22717,-11.34846c13.10837,-2.59253 27.22769,1.19027 37.38587,11.34846c12.13148,12.13148 15.17011,29.91254 9.11588,44.87417c-0.51809,-0.73701 -1.10657,-1.43963 -1.76545,-2.09851c-6.16669,-6.16669 -16.16488,-6.16669 -22.33156,0c-6.16669,6.16669 -6.16669,16.16488 0,22.33156c0.7908,0.7908 1.64463,1.48019 2.54529,2.06818c-15.22157,6.77742 -33.69152,3.92332 -46.17719,-8.56235z"/><path d="M290.52004,200.7043c-7.31397,7.31397 -19.17225,7.31397 -26.48623,0c-7.31397,-7.31397 -7.31397,-19.17227 0,-26.48624c7.31397,-7.31397 19.17225,-7.31397 26.48623,0c7.31397,7.31397 7.31397,19.17227 0,26.48624z"/><path d="M328.6553,238.83956c-16.18554,16.18554 -42.42749,16.18554 -58.61304,0c-10.63868,-10.63868 -14.28461,-25.62209 -10.93779,-39.23869c1.74498,-7.09953 5.39092,-13.82749 10.93779,-19.37436c6.02737,-6.02737 13.4493,-9.81019 21.22717,-11.34847c13.10837,-2.59253 27.22769,1.19029 37.38587,11.34847c16.18554,16.18554 16.18554,42.42751 0,58.61305z"/><path d="M230.1903,184.3105c-7.31397,7.31397 -19.17227,7.31397 -26.48624,0c-7.31397,-7.31397 -7.31397,-19.17227 0,-26.48624c7.31397,-7.31397 19.17227,-7.31397 26.48624,0c7.31397,7.31397 7.31397,19.17227 0,26.48624z"/><path d="M209.95777,238.44921c-10.63868,10.63868 -25.62209,14.28461 -39.23869,10.93779c-7.09953,-1.74498 -13.82749,-5.39092 -19.37436,-10.93779c-6.02737,-6.02737 -9.81019,-13.4493 -11.34847,-21.22717c-2.59253,-13.10837 1.19029,-27.22769 11.34847,-37.38587c12.13148,-12.13148 29.91254,-15.17011 44.87417,-9.11588c-0.73701,0.51809 -1.43964,1.10657 -2.09852,1.76545c-6.16669,6.16669 -6.16669,16.16488 0,22.33156c6.16669,6.16669 16.16488,6.16669 22.33156,0c0.7908,-0.7908 1.48019,-1.64463 2.06818,-2.54529c6.77742,15.22157 3.92333,33.69152 -8.56234,46.17719z"/></g></g></svg>